<mxfile host="app.diagrams.net" modified="2024-04-29T17:50:23.538Z" agent="Mozilla/5.0 (Windows NT 10.0; Win64; x64) AppleWebKit/537.36 (KHTML, like Gecko) Chrome/124.0.0.0 Safari/537.36" etag="9SbieFOTNVdd1LQ66tWG" version="24.3.1" type="device">
  <diagram name="Page-1" id="IXBA4A9O0upmgR44Wa8k">
    <mxGraphModel dx="2524" dy="1890" grid="1" gridSize="10" guides="1" tooltips="1" connect="1" arrows="1" fold="1" page="1" pageScale="1" pageWidth="850" pageHeight="1100" math="0" shadow="0">
      <root>
        <mxCell id="0" />
        <mxCell id="1" parent="0" />
        <mxCell id="rHg2EaAUkhDOVjB2PhpP-1" value="Banco" style="swimlane;fontStyle=1;align=center;verticalAlign=top;childLayout=stackLayout;horizontal=1;startSize=26;horizontalStack=0;resizeParent=1;resizeParentMax=0;resizeLast=0;collapsible=1;marginBottom=0;whiteSpace=wrap;html=1;strokeColor=#0DB6FF;" parent="1" vertex="1">
          <mxGeometry x="-240" y="-100" width="410" height="300" as="geometry" />
        </mxCell>
        <mxCell id="rHg2EaAUkhDOVjB2PhpP-2" value="- clientes&amp;nbsp; &amp;nbsp; &amp;nbsp; &amp;nbsp; &amp;nbsp; &amp;nbsp; &amp;nbsp; &amp;nbsp; &amp;nbsp; &amp;nbsp; &amp;nbsp; &amp;nbsp; : List[Cliente]&lt;div&gt;-solicitudesActivas&amp;nbsp; &amp;nbsp; &amp;nbsp; &amp;nbsp; &amp;nbsp;:List&amp;lt;CreditoGeneral&amp;gt;&lt;/div&gt;&lt;div&gt;-solicitudesRechazadas&lt;span style=&quot;background-color: initial;&quot;&gt;:List&amp;lt;CreditoGeneral&amp;gt;&lt;/span&gt;&lt;/div&gt;&lt;div&gt;&lt;br&gt;&lt;/div&gt;&lt;div&gt;&lt;br&gt;&lt;/div&gt;&lt;div&gt;&lt;br&gt;&lt;/div&gt;&lt;div&gt;&lt;br&gt;&lt;/div&gt;&lt;div&gt;&lt;br&gt;&lt;/div&gt;" style="text;strokeColor=#0DB6FF;fillColor=none;align=left;verticalAlign=top;spacingLeft=4;spacingRight=4;overflow=hidden;rotatable=0;points=[[0,0.5],[1,0.5]];portConstraint=eastwest;whiteSpace=wrap;html=1;" parent="rHg2EaAUkhDOVjB2PhpP-1" vertex="1">
          <mxGeometry y="26" width="410" height="74" as="geometry" />
        </mxCell>
        <mxCell id="rHg2EaAUkhDOVjB2PhpP-4" value="&lt;div&gt;+new(): void&lt;/div&gt;+agregarCliente(Cliente) : void&lt;div&gt;+removerCliente(Cliente) : void&lt;/div&gt;&lt;div&gt;+gestionarPrestamoPersonal(&amp;lt;todos los de Cp&amp;gt;): void&lt;/div&gt;&lt;div&gt;+gestionarPrestamoHipotecario(&amp;lt;todos los de CH&amp;gt;) : void&lt;/div&gt;&lt;div&gt;+corroborarSiCumplePrestamoPersonal(&lt;span style=&quot;background-color: initial;&quot;&gt;&amp;lt;todos los de Cp&amp;gt;&lt;/span&gt;&lt;span style=&quot;background-color: initial;&quot;&gt;): boolean&lt;/span&gt;&lt;/div&gt;&lt;div&gt;+corroborarSiCumplePrestamoHipot(&lt;span style=&quot;background-color: initial;&quot;&gt;&amp;lt;todos los de CH&amp;gt;&lt;/span&gt;&lt;span style=&quot;background-color: initial;&quot;&gt;): boolean&lt;/span&gt;&lt;/div&gt;&lt;div&gt;+desembolsoDinero(cliente):&amp;nbsp; boolean.&lt;br&gt;&lt;/div&gt;&lt;div&gt;+agregarAAprobados(credito) : void&lt;/div&gt;&lt;div&gt;&lt;span style=&quot;background-color: initial;&quot;&gt;+agregarARechazados(credito) : void&lt;/span&gt;&lt;br&gt;&lt;/div&gt;&lt;div&gt;&lt;span style=&quot;background-color: initial;&quot;&gt;+edadCuandoTermineDePagar(cliente, meses) : int&lt;/span&gt;&lt;/div&gt;&lt;div&gt;&lt;span style=&quot;background-color: initial;&quot;&gt;+montoTotalADesembolsar() : Double&lt;/span&gt;&lt;/div&gt;" style="text;strokeColor=#0DB6FF;fillColor=none;align=left;verticalAlign=top;spacingLeft=4;spacingRight=4;overflow=hidden;rotatable=0;points=[[0,0.5],[1,0.5]];portConstraint=eastwest;whiteSpace=wrap;html=1;" parent="rHg2EaAUkhDOVjB2PhpP-1" vertex="1">
          <mxGeometry y="100" width="410" height="200" as="geometry" />
        </mxCell>
        <mxCell id="rHg2EaAUkhDOVjB2PhpP-5" value="Cliente" style="swimlane;fontStyle=1;align=center;verticalAlign=top;childLayout=stackLayout;horizontal=1;startSize=26;horizontalStack=0;resizeParent=1;resizeParentMax=0;resizeLast=0;collapsible=1;marginBottom=0;whiteSpace=wrap;html=1;strokeColor=#30FF37;" parent="1" vertex="1">
          <mxGeometry x="320" y="30" width="510" height="310" as="geometry" />
        </mxCell>
        <mxCell id="rHg2EaAUkhDOVjB2PhpP-6" value="-nombre&amp;nbsp; &amp;nbsp; &amp;nbsp; &amp;nbsp; &amp;nbsp; &amp;nbsp; &amp;nbsp; &amp;nbsp; &amp;nbsp; &amp;nbsp; &amp;nbsp; :String&lt;div&gt;-apellido&lt;span style=&quot;background-color: initial;&quot;&gt;&amp;nbsp; &amp;nbsp; &amp;nbsp; &amp;nbsp; &amp;nbsp; &amp;nbsp; &amp;nbsp; &amp;nbsp; &amp;nbsp; &amp;nbsp; &amp;nbsp; :String&lt;/span&gt;&lt;/div&gt;&lt;div&gt;-direccion&lt;span style=&quot;background-color: initial;&quot;&gt;&amp;nbsp; &amp;nbsp; &amp;nbsp; &amp;nbsp; &amp;nbsp; &amp;nbsp; &amp;nbsp; &amp;nbsp; &amp;nbsp; &amp;nbsp; :String&lt;/span&gt;&lt;/div&gt;&lt;div&gt;-edad&lt;span style=&quot;background-color: initial;&quot;&gt;&amp;nbsp; &amp;nbsp; &amp;nbsp; &amp;nbsp; &amp;nbsp; &amp;nbsp; &amp;nbsp; &amp;nbsp; &amp;nbsp; &amp;nbsp; &amp;nbsp; &amp;nbsp; &amp;nbsp; :int&lt;/span&gt;&lt;/div&gt;&lt;div&gt;-sueldoNetoMensual&lt;span style=&quot;background-color: initial;&quot;&gt;&amp;nbsp; :Double&lt;/span&gt;&lt;/div&gt;&lt;div&gt;-propiedad&amp;nbsp; &amp;nbsp; &amp;nbsp; &amp;nbsp; &amp;nbsp; &amp;nbsp; &amp;nbsp; &amp;nbsp; &amp;nbsp;&amp;nbsp;&lt;span style=&quot;background-color: initial;&quot;&gt;&amp;nbsp;:Propiedad&lt;/span&gt;&lt;/div&gt;&lt;div&gt;-banco&amp;nbsp; &amp;nbsp; &amp;nbsp; &amp;nbsp; &amp;nbsp; &amp;nbsp; &amp;nbsp; &amp;nbsp; &amp;nbsp; &amp;nbsp; &amp;nbsp; &amp;nbsp; &amp;nbsp;:Banco&lt;/div&gt;&lt;div&gt;-estadoSolicitud&amp;nbsp; &amp;nbsp; &amp;nbsp; &amp;nbsp; &amp;nbsp; :Boolean&lt;/div&gt;" style="text;strokeColor=#30FF37;fillColor=none;align=left;verticalAlign=top;spacingLeft=4;spacingRight=4;overflow=hidden;rotatable=0;points=[[0,0.5],[1,0.5]];portConstraint=eastwest;whiteSpace=wrap;html=1;" parent="rHg2EaAUkhDOVjB2PhpP-5" vertex="1">
          <mxGeometry y="26" width="510" height="134" as="geometry" />
        </mxCell>
        <mxCell id="rHg2EaAUkhDOVjB2PhpP-7" value="" style="line;strokeWidth=1;fillColor=none;align=left;verticalAlign=middle;spacingTop=-1;spacingLeft=3;spacingRight=3;rotatable=0;labelPosition=right;points=[];portConstraint=eastwest;strokeColor=#30FF37;" parent="rHg2EaAUkhDOVjB2PhpP-5" vertex="1">
          <mxGeometry y="160" width="510" height="8" as="geometry" />
        </mxCell>
        <mxCell id="rHg2EaAUkhDOVjB2PhpP-8" value="&lt;div&gt;+new(&amp;lt;todosLosDeArriba&amp;gt;) : Cliente&lt;/div&gt;&lt;div&gt;+solicitarRegistroEnBanco(self) : void.&lt;/div&gt;&lt;div&gt;+ realizarSolicitudTipoPersonal(float, int): void&lt;/div&gt;&lt;div&gt;+ realizarSolicitudTipoHipot(float, int): void&lt;/div&gt;&lt;div&gt;+ getSueldoNetoAnual(): double&lt;/div&gt;&lt;div&gt;+getSueldoMensual(): double&lt;/div&gt;&lt;div&gt;+getEdad(): int&lt;/div&gt;&lt;div&gt;+setEstadoSolicitud(boolean) : void&lt;/div&gt;" style="text;strokeColor=#30FF37;fillColor=none;align=left;verticalAlign=top;spacingLeft=4;spacingRight=4;overflow=hidden;rotatable=0;points=[[0,0.5],[1,0.5]];portConstraint=eastwest;whiteSpace=wrap;html=1;" parent="rHg2EaAUkhDOVjB2PhpP-5" vertex="1">
          <mxGeometry y="168" width="510" height="142" as="geometry" />
        </mxCell>
        <mxCell id="rHg2EaAUkhDOVjB2PhpP-9" value="Propiedad" style="swimlane;fontStyle=1;align=center;verticalAlign=top;childLayout=stackLayout;horizontal=1;startSize=26;horizontalStack=0;resizeParent=1;resizeParentMax=0;resizeLast=0;collapsible=1;marginBottom=0;whiteSpace=wrap;html=1;strokeColor=#FF4DE1;" parent="1" vertex="1">
          <mxGeometry x="560" y="450" width="160" height="140" as="geometry" />
        </mxCell>
        <mxCell id="rHg2EaAUkhDOVjB2PhpP-10" value="-descripcion : String&lt;div&gt;-direccion&amp;nbsp; &amp;nbsp; : String&lt;/div&gt;&lt;div&gt;-valorFiscal : int.&lt;/div&gt;" style="text;strokeColor=#FF4DE1;fillColor=none;align=left;verticalAlign=top;spacingLeft=4;spacingRight=4;overflow=hidden;rotatable=0;points=[[0,0.5],[1,0.5]];portConstraint=eastwest;whiteSpace=wrap;html=1;" parent="rHg2EaAUkhDOVjB2PhpP-9" vertex="1">
          <mxGeometry y="26" width="160" height="64" as="geometry" />
        </mxCell>
        <mxCell id="rHg2EaAUkhDOVjB2PhpP-11" value="" style="line;strokeWidth=1;fillColor=none;align=left;verticalAlign=middle;spacingTop=-1;spacingLeft=3;spacingRight=3;rotatable=0;labelPosition=right;points=[];portConstraint=eastwest;strokeColor=#FF4DE1;" parent="rHg2EaAUkhDOVjB2PhpP-9" vertex="1">
          <mxGeometry y="90" width="160" height="8" as="geometry" />
        </mxCell>
        <mxCell id="rHg2EaAUkhDOVjB2PhpP-12" value="&lt;div&gt;&lt;div&gt;-getValorFiscal():int&lt;/div&gt;&lt;/div&gt;" style="text;strokeColor=#FF4DE1;fillColor=none;align=left;verticalAlign=top;spacingLeft=4;spacingRight=4;overflow=hidden;rotatable=0;points=[[0,0.5],[1,0.5]];portConstraint=eastwest;whiteSpace=wrap;html=1;" parent="rHg2EaAUkhDOVjB2PhpP-9" vertex="1">
          <mxGeometry y="98" width="160" height="42" as="geometry" />
        </mxCell>
        <mxCell id="rHg2EaAUkhDOVjB2PhpP-13" value="&lt;i&gt;Credito&amp;nbsp;&lt;span style=&quot;background-color: initial;&quot;&gt;General&lt;/span&gt;&lt;/i&gt;" style="swimlane;fontStyle=1;align=center;verticalAlign=top;childLayout=stackLayout;horizontal=1;startSize=26;horizontalStack=0;resizeParent=1;resizeParentMax=0;resizeLast=0;collapsible=1;marginBottom=0;whiteSpace=wrap;html=1;strokeColor=#CC6600;" parent="1" vertex="1">
          <mxGeometry x="-30" y="330" width="240" height="210" as="geometry" />
        </mxCell>
        <mxCell id="rHg2EaAUkhDOVjB2PhpP-14" value="-solicitante : Cliente&lt;div&gt;-montoAPrestar : Double&lt;/div&gt;&lt;div&gt;-plazoASerDevuelto : int&lt;/div&gt;" style="text;strokeColor=#CC6600;fillColor=none;align=left;verticalAlign=top;spacingLeft=4;spacingRight=4;overflow=hidden;rotatable=0;points=[[0,0.5],[1,0.5]];portConstraint=eastwest;whiteSpace=wrap;html=1;" parent="rHg2EaAUkhDOVjB2PhpP-13" vertex="1">
          <mxGeometry y="26" width="240" height="114" as="geometry" />
        </mxCell>
        <mxCell id="rHg2EaAUkhDOVjB2PhpP-16" value="getMonto(): Double." style="text;strokeColor=#CC6600;fillColor=none;align=left;verticalAlign=top;spacingLeft=4;spacingRight=4;overflow=hidden;rotatable=0;points=[[0,0.5],[1,0.5]];portConstraint=eastwest;whiteSpace=wrap;html=1;" parent="rHg2EaAUkhDOVjB2PhpP-13" vertex="1">
          <mxGeometry y="140" width="240" height="70" as="geometry" />
        </mxCell>
        <mxCell id="rHg2EaAUkhDOVjB2PhpP-17" value="CreditoHipotecario" style="swimlane;fontStyle=1;align=center;verticalAlign=top;childLayout=stackLayout;horizontal=1;startSize=26;horizontalStack=0;resizeParent=1;resizeParentMax=0;resizeLast=0;collapsible=1;marginBottom=0;whiteSpace=wrap;html=1;strokeColor=#FF9933;" parent="1" vertex="1">
          <mxGeometry x="80" y="590" width="200" height="86" as="geometry" />
        </mxCell>
        <mxCell id="rHg2EaAUkhDOVjB2PhpP-18" value="+propiedad : Propiedad" style="text;strokeColor=#FF9933;fillColor=none;align=left;verticalAlign=top;spacingLeft=4;spacingRight=4;overflow=hidden;rotatable=0;points=[[0,0.5],[1,0.5]];portConstraint=eastwest;whiteSpace=wrap;html=1;" parent="rHg2EaAUkhDOVjB2PhpP-17" vertex="1">
          <mxGeometry y="26" width="200" height="26" as="geometry" />
        </mxCell>
        <mxCell id="rHg2EaAUkhDOVjB2PhpP-19" value="" style="line;strokeWidth=1;fillColor=none;align=left;verticalAlign=middle;spacingTop=-1;spacingLeft=3;spacingRight=3;rotatable=0;labelPosition=right;points=[];portConstraint=eastwest;strokeColor=#FF9933;" parent="rHg2EaAUkhDOVjB2PhpP-17" vertex="1">
          <mxGeometry y="52" width="200" height="8" as="geometry" />
        </mxCell>
        <mxCell id="rHg2EaAUkhDOVjB2PhpP-20" value="+ method(type): type" style="text;strokeColor=#FF9933;fillColor=none;align=left;verticalAlign=top;spacingLeft=4;spacingRight=4;overflow=hidden;rotatable=0;points=[[0,0.5],[1,0.5]];portConstraint=eastwest;whiteSpace=wrap;html=1;" parent="rHg2EaAUkhDOVjB2PhpP-17" vertex="1">
          <mxGeometry y="60" width="200" height="26" as="geometry" />
        </mxCell>
        <mxCell id="rHg2EaAUkhDOVjB2PhpP-21" value="CreditoPersonal" style="swimlane;fontStyle=1;align=center;verticalAlign=top;childLayout=stackLayout;horizontal=1;startSize=26;horizontalStack=0;resizeParent=1;resizeParentMax=0;resizeLast=0;collapsible=1;marginBottom=0;whiteSpace=wrap;html=1;strokeColor=#FF9933;" parent="1" vertex="1">
          <mxGeometry x="-150" y="590" width="200" height="86" as="geometry" />
        </mxCell>
        <mxCell id="rHg2EaAUkhDOVjB2PhpP-22" value="+ field: type" style="text;strokeColor=#FF9933;fillColor=none;align=left;verticalAlign=top;spacingLeft=4;spacingRight=4;overflow=hidden;rotatable=0;points=[[0,0.5],[1,0.5]];portConstraint=eastwest;whiteSpace=wrap;html=1;" parent="rHg2EaAUkhDOVjB2PhpP-21" vertex="1">
          <mxGeometry y="26" width="200" height="26" as="geometry" />
        </mxCell>
        <mxCell id="rHg2EaAUkhDOVjB2PhpP-23" value="" style="line;strokeWidth=1;fillColor=none;align=left;verticalAlign=middle;spacingTop=-1;spacingLeft=3;spacingRight=3;rotatable=0;labelPosition=right;points=[];portConstraint=eastwest;strokeColor=#FF9933;" parent="rHg2EaAUkhDOVjB2PhpP-21" vertex="1">
          <mxGeometry y="52" width="200" height="8" as="geometry" />
        </mxCell>
        <mxCell id="rHg2EaAUkhDOVjB2PhpP-24" value="+ method(type): type" style="text;strokeColor=#FF9933;fillColor=none;align=left;verticalAlign=top;spacingLeft=4;spacingRight=4;overflow=hidden;rotatable=0;points=[[0,0.5],[1,0.5]];portConstraint=eastwest;whiteSpace=wrap;html=1;" parent="rHg2EaAUkhDOVjB2PhpP-21" vertex="1">
          <mxGeometry y="60" width="200" height="26" as="geometry" />
        </mxCell>
        <mxCell id="rHg2EaAUkhDOVjB2PhpP-25" value="Extends" style="endArrow=block;endSize=16;endFill=0;html=1;rounded=0;exitX=0.75;exitY=0;exitDx=0;exitDy=0;" parent="1" edge="1">
          <mxGeometry x="0.0244" y="-12" width="160" relative="1" as="geometry">
            <mxPoint x="270" y="590" as="sourcePoint" />
            <mxPoint x="210" y="372.5" as="targetPoint" />
            <Array as="points">
              <mxPoint x="270" y="373" />
            </Array>
            <mxPoint as="offset" />
          </mxGeometry>
        </mxCell>
        <mxCell id="rHg2EaAUkhDOVjB2PhpP-26" value="Extends" style="endArrow=block;endSize=16;endFill=0;html=1;rounded=0;exitX=0.303;exitY=0.023;exitDx=0;exitDy=0;exitPerimeter=0;" parent="1" source="rHg2EaAUkhDOVjB2PhpP-21" edge="1">
          <mxGeometry y="13" width="160" relative="1" as="geometry">
            <mxPoint x="-190" y="372.5" as="sourcePoint" />
            <mxPoint x="-30" y="372.5" as="targetPoint" />
            <Array as="points">
              <mxPoint x="-90" y="373" />
            </Array>
            <mxPoint y="1" as="offset" />
          </mxGeometry>
        </mxCell>
        <mxCell id="rHg2EaAUkhDOVjB2PhpP-29" value="creditos" style="endArrow=block;endFill=1;html=1;edgeStyle=orthogonalEdgeStyle;align=left;verticalAlign=top;rounded=0;" parent="1" target="rHg2EaAUkhDOVjB2PhpP-13" edge="1">
          <mxGeometry x="-0.4392" relative="1" as="geometry">
            <mxPoint x="320" y="196" as="sourcePoint" />
            <mxPoint x="480" y="196" as="targetPoint" />
            <Array as="points">
              <mxPoint x="210" y="196" />
            </Array>
            <mxPoint as="offset" />
          </mxGeometry>
        </mxCell>
        <mxCell id="rHg2EaAUkhDOVjB2PhpP-31" value="creditos" style="endArrow=block;endFill=1;html=1;edgeStyle=orthogonalEdgeStyle;align=left;verticalAlign=top;rounded=0;entryX=0.25;entryY=0;entryDx=0;entryDy=0;" parent="1" target="rHg2EaAUkhDOVjB2PhpP-13" edge="1">
          <mxGeometry x="-1" relative="1" as="geometry">
            <mxPoint x="80" y="196" as="sourcePoint" />
            <mxPoint x="160" y="290" as="targetPoint" />
            <Array as="points">
              <mxPoint x="80" y="240" />
              <mxPoint x="160" y="240" />
            </Array>
            <mxPoint as="offset" />
          </mxGeometry>
        </mxCell>
        <mxCell id="rHg2EaAUkhDOVjB2PhpP-32" value="1" style="edgeLabel;resizable=0;html=1;align=left;verticalAlign=bottom;" parent="rHg2EaAUkhDOVjB2PhpP-31" connectable="0" vertex="1">
          <mxGeometry x="-1" relative="1" as="geometry">
            <mxPoint x="10" y="44" as="offset" />
          </mxGeometry>
        </mxCell>
        <mxCell id="vIFbrdGOUz_xVuRbxvdF-2" value="propiedad" style="endArrow=block;endFill=1;html=1;edgeStyle=orthogonalEdgeStyle;align=left;verticalAlign=top;rounded=0;" parent="1" edge="1">
          <mxGeometry x="-0.4392" relative="1" as="geometry">
            <mxPoint x="620" y="330" as="sourcePoint" />
            <mxPoint x="620" y="450" as="targetPoint" />
            <Array as="points">
              <mxPoint x="620" y="346" />
            </Array>
            <mxPoint as="offset" />
          </mxGeometry>
        </mxCell>
        <mxCell id="vIFbrdGOUz_xVuRbxvdF-3" value="1" style="edgeLabel;resizable=0;html=1;align=left;verticalAlign=bottom;" parent="vIFbrdGOUz_xVuRbxvdF-2" connectable="0" vertex="1">
          <mxGeometry x="-1" relative="1" as="geometry">
            <mxPoint x="10" y="30" as="offset" />
          </mxGeometry>
        </mxCell>
      </root>
    </mxGraphModel>
  </diagram>
</mxfile>
